<?xml version="1.0" standalone="no"?>
<!DOCTYPE svg PUBLIC "-//W3C//DTD SVG 20010904//EN"
 "http://www.w3.org/TR/2001/REC-SVG-20010904/DTD/svg10.dtd">
<svg version="1.0" xmlns="http://www.w3.org/2000/svg"
 width="233.000000pt" height="232.000000pt" viewBox="0 0 233.000000 232.000000"
 preserveAspectRatio="xMidYMid meet">

<g transform="translate(0.000000,232.000000) scale(0.100000,-0.100000)"
fill="#000000" stroke="none">
<path d="M0 1160 l0 -1160 1165 0 1165 0 0 1160 0 1160 -1165 0 -1165 0 0
-1160z m1357 996 c191 -41 350 -131 498 -280 186 -188 279 -396 292 -651 27
-563 -394 -1031 -957 -1061 -499 -27 -948 334 -1035 835 -38 214 -3 435 100
642 135 268 405 465 718 525 89 17 283 12 384 -10z"/>
<path d="M1113 2148 c-25 -12 -29 -23 -12 -34 6 -3 19 -20 29 -36 l18 -30 12
23 c7 13 22 34 33 46 11 13 19 25 16 27 -12 10 -77 13 -96 4z"/>
<path d="M1234 2121 c-44 -27 -64 -59 -64 -104 0 -51 23 -93 62 -113 46 -24
153 -13 248 25 107 43 172 40 219 -10 23 -25 28 -78 9 -97 -18 -18 -46 -14
-58 7 -8 16 -5 23 16 38 25 18 25 20 9 37 -10 9 -27 16 -39 14 -18 -3 -21 -9
-20 -46 1 -52 -8 -46 -15 11 -6 40 -7 42 -41 42 -29 0 -36 -4 -38 -23 -2 -12
6 -39 18 -60 21 -37 21 -37 1 -12 -12 14 -30 35 -41 48 -22 26 -49 23 -83 -6
-17 -15 -16 -17 30 -39 26 -12 70 -38 97 -58 55 -40 97 -45 152 -19 70 33 87
128 34 187 -16 19 -44 40 -60 47 -45 19 -153 7 -230 -24 -89 -37 -168 -44
-198 -20 -28 23 -34 72 -10 87 27 18 47 -6 29 -35 -15 -24 -2 -38 35 -38 37 0
48 24 30 61 -24 49 -11 46 16 -3 27 -49 55 -59 83 -28 18 20 18 21 -6 46 -13
14 -37 33 -52 41 -16 8 -27 17 -24 20 8 7 48 -16 90 -53 42 -39 47 -40 87 -19
33 17 39 35 12 35 -10 0 -51 16 -92 36 -94 45 -162 53 -206 25z"/>
<path d="M843 2093 c-51 -19 -93 -39 -93 -44 0 -17 33 -39 61 -39 20 0 43 12
73 40 54 50 72 53 23 3 -40 -39 -44 -50 -24 -76 19 -26 55 -10 78 35 11 22 23
38 26 35 2 -3 0 -14 -6 -25 -29 -54 7 -89 56 -56 24 15 25 18 10 29 -26 19
-22 47 6 43 33 -5 35 -51 3 -83 -37 -37 -95 -34 -209 11 -120 46 -179 53 -239
26 -58 -25 -83 -62 -82 -118 1 -53 25 -91 69 -110 53 -22 95 -17 160 20 33 18
76 41 95 52 19 10 37 21 40 22 9 6 -41 42 -58 42 -9 0 -34 -19 -55 -42 l-39
-43 21 36 c25 43 25 49 7 74 -13 18 -15 18 -40 2 -14 -10 -26 -27 -26 -38 0
-25 -27 -79 -40 -79 -5 0 -1 15 10 33 25 41 25 54 -1 67 -16 9 -26 8 -46 -5
-24 -16 -24 -17 -7 -36 17 -19 17 -20 0 -37 -16 -16 -18 -16 -37 7 -24 29 -24
38 1 78 13 22 31 35 59 43 49 13 67 9 198 -41 120 -46 180 -51 229 -17 118 81
60 229 -88 228 -25 -1 -83 -16 -135 -37z"/>
<path d="M1132 1928 c-18 -18 -14 -28 8 -28 11 0 20 6 20 14 0 21 -15 27 -28
14z"/>
<path d="M467 1892 c-23 -14 -63 -70 -55 -77 2 -1 27 -5 56 -7 43 -4 52 -3 48
9 -4 8 -6 32 -6 54 0 43 -3 45 -43 21z"/>
<path d="M1778 1849 c-3 -46 -1 -50 17 -45 11 3 35 6 53 6 l33 0 -23 31 c-13
17 -35 37 -50 45 l-26 14 -4 -51z"/>
<path d="M982 1851 c-40 -10 -112 -38 -160 -61 -124 -61 -245 -182 -301 -301
-56 -115 -75 -195 -75 -309 0 -108 15 -189 51 -274 112 -268 365 -436 657
-436 308 0 588 221 666 526 36 139 23 317 -30 438 -89 200 -236 335 -435 401
-109 36 -267 43 -373 16z m-29 -443 c41 -95 101 -235 133 -310 33 -76 61 -138
64 -138 3 0 63 140 134 310 l129 311 116 -3 c114 -3 148 -16 80 -29 -66 -14
-64 -3 -64 -384 0 -380 -3 -365 65 -382 69 -18 23 -28 -132 -30 -132 -1 -158
1 -158 13 0 8 10 14 25 14 14 0 37 11 50 25 l25 24 -1 313 c0 172 -2 309 -5
303 -193 -459 -294 -690 -301 -689 -4 1 -67 138 -140 305 -73 167 -139 318
-147 334 -14 27 -15 4 -13 -268 l2 -299 28 -24 c15 -13 39 -24 53 -24 16 0 24
-5 22 -12 -4 -10 -40 -13 -136 -13 -132 0 -170 11 -97 29 70 16 70 19 70 394
l0 334 -24 19 c-13 10 -36 19 -52 19 -19 0 -29 5 -29 15 0 12 19 15 114 15
l114 0 75 -172z"/>
<path d="M422 1790 c-71 -12 -120 -97 -109 -190 3 -25 22 -83 41 -130 44 -106
48 -169 11 -205 -27 -28 -66 -32 -85 -9 -20 23 10 50 37 35 25 -13 43 3 43 36
0 30 -24 39 -58 22 -44 -22 -45 -22 -37 -9 4 7 27 21 51 32 35 15 44 24 44 44
0 16 -8 28 -25 36 -23 10 -29 8 -67 -28 -44 -42 -39 -22 11 40 33 42 37 56 21
87 -19 34 -34 20 -74 -67 -50 -108 -58 -182 -26 -232 40 -64 135 -79 187 -30
60 56 67 123 27 233 -51 136 -59 178 -46 224 16 50 47 81 83 81 31 0 54 -23
45 -45 -7 -20 -33 -19 -45 2 -9 17 -11 16 -30 -1 -52 -47 8 -104 65 -61 27 21
40 18 20 -4 -9 -10 -36 -21 -59 -24 -37 -5 -67 -27 -67 -49 0 -15 42 -30 68
-23 14 3 41 22 59 41 18 20 33 31 33 26 0 -12 -68 -82 -80 -82 -17 0 -29 -37
-21 -65 9 -34 27 -43 35 -17 3 10 26 49 51 87 39 58 45 75 45 119 0 63 -28
113 -67 122 -15 3 -32 7 -38 8 -5 1 -25 0 -43 -4z"/>
<path d="M1800 1782 c-48 -23 -80 -75 -80 -126 0 -33 11 -59 50 -121 28 -44
50 -85 50 -92 0 -20 17 -15 34 9 23 33 20 56 -11 72 -16 8 -41 29 -58 47 l-30
32 32 -22 c18 -12 35 -26 38 -31 9 -15 61 -12 75 5 7 8 10 25 6 40 -5 20 -12
25 -40 25 -19 0 -44 9 -57 20 -29 23 -22 25 17 5 24 -12 32 -12 49 -1 26 17
29 36 11 61 -12 16 -17 18 -27 8 -16 -16 -41 -17 -57 -1 -9 9 -8 16 5 30 19
21 33 22 68 6 66 -30 73 -126 19 -255 -19 -48 -38 -108 -41 -133 -14 -120 66
-194 171 -158 31 10 45 23 64 58 30 57 24 117 -18 207 -17 34 -30 71 -30 82 0
47 -42 32 -55 -20 -5 -19 3 -38 30 -79 49 -72 52 -82 15 -37 -33 38 -57 46
-78 25 -24 -24 -13 -47 33 -67 25 -11 45 -25 45 -32 0 -8 -6 -6 -18 4 -22 20
-63 22 -80 5 -25 -25 -8 -78 25 -78 7 0 13 7 13 16 0 25 44 13 48 -13 8 -53
-85 -47 -113 8 -22 42 -19 62 26 168 52 121 61 196 31 265 -17 37 -30 51 -64
66 -53 24 -55 24 -98 2z"/>
<path d="M601 1706 c-12 -14 -5 -26 16 -26 15 0 18 26 4 34 -5 3 -14 0 -20 -8z"/>
<path d="M1646 1701 c-7 -11 18 -33 27 -24 4 3 7 12 7 20 0 15 -26 18 -34 4z"/>
<path d="M166 1209 c-12 -61 13 -139 30 -94 3 8 22 24 41 36 l34 22 -40 24
c-23 13 -41 28 -41 34 0 23 -18 6 -24 -22z"/>
<path d="M2100 1225 c-8 -9 -27 -23 -42 -31 l-29 -15 43 -39 43 -38 7 32 c7
30 4 94 -5 102 -2 3 -10 -3 -17 -11z"/>
<path d="M384 1179 c-10 -17 13 -36 27 -22 12 12 4 33 -11 33 -5 0 -12 -5 -16
-11z"/>
<path d="M1867 1175 c-8 -18 11 -31 25 -17 11 11 3 32 -12 32 -4 0 -10 -7 -13
-15z"/>
<path d="M290 1153 c-42 -13 -62 -31 -85 -77 -31 -62 -31 -86 1 -161 14 -33
32 -79 41 -102 17 -49 25 -52 47 -21 25 35 19 61 -24 116 -22 27 -40 56 -40
62 0 7 13 -5 29 -28 38 -52 48 -57 77 -41 32 17 34 65 2 75 -21 6 -21 7 5 21
29 15 34 39 14 67 -12 16 -16 17 -35 5 -28 -18 -53 1 -32 26 19 22 53 18 80
-10 36 -38 31 -100 -15 -210 -21 -51 -39 -113 -42 -145 -10 -107 45 -180 134
-180 42 0 99 43 113 86 18 53 7 95 -44 178 -25 40 -46 78 -46 84 0 16 -15 15
-28 0 -25 -31 -17 -58 28 -98 l45 -41 -42 26 c-45 29 -70 30 -87 3 -16 -27 4
-52 48 -59 21 -3 45 -14 54 -24 16 -17 16 -17 -10 0 -53 33 -101 2 -82 -52 11
-34 44 -44 44 -14 0 24 13 33 34 25 19 -7 21 -35 4 -52 -38 -38 -117 16 -119
81 -2 59 3 78 43 175 22 53 40 113 40 132 0 47 -29 115 -55 133 -26 16 -75 27
-97 20z m14 -162 c-2 -3 -12 3 -22 13 -16 17 -16 18 5 5 12 -7 20 -15 17 -18z"/>
<path d="M1920 1128 c-46 -31 -60 -61 -60 -131 0 -44 9 -79 35 -143 56 -134
43 -246 -31 -274 -46 -18 -94 30 -57 57 15 12 20 10 34 -9 15 -19 19 -20 33
-9 9 7 16 26 16 42 0 31 -25 45 -62 34 -16 -5 -20 -4 -13 3 6 6 25 12 44 14
40 4 61 29 45 55 -17 27 -42 39 -58 28 -8 -6 -29 -21 -47 -34 -28 -20 -26 -15
14 25 48 50 57 78 37 115 -13 23 -30 25 -30 4 0 -8 -20 -48 -45 -88 -68 -110
-72 -188 -14 -246 51 -52 108 -51 167 3 71 64 73 151 6 296 -39 87 -46 109
-41 147 6 59 31 85 76 81 26 -2 37 -8 39 -22 6 -27 -12 -40 -31 -22 -22 22
-36 20 -49 -9 -22 -49 24 -70 85 -38 30 15 31 15 18 0 -7 -9 -31 -22 -52 -28
-49 -15 -61 -45 -29 -71 31 -25 38 -23 83 24 47 49 31 13 -19 -42 -39 -43 -43
-76 -15 -111 23 -28 23 -28 43 31 9 25 28 74 43 109 36 86 31 139 -17 188 -47
47 -99 54 -148 21z"/>
<path d="M590 645 c0 -10 7 -15 18 -13 21 4 19 22 -2 26 -10 2 -16 -3 -16 -13z"/>
<path d="M1644 649 c-9 -15 11 -33 30 -26 9 4 13 13 10 22 -7 17 -30 20 -40 4z"/>
<path d="M583 580 c-93 -57 -80 -186 24 -232 65 -29 134 -20 232 29 63 32 86
38 138 38 49 0 66 -4 82 -20 31 -33 35 -61 10 -86 -19 -19 -23 -20 -37 -5 -14
14 -14 17 3 36 14 16 15 22 5 35 -15 18 -51 20 -68 3 -18 -18 -14 -52 10 -84
l22 -29 -27 24 c-15 14 -31 39 -35 55 -10 40 -52 48 -76 15 -20 -29 -8 -51 45
-86 22 -14 37 -28 35 -31 -7 -7 -68 33 -95 62 -28 30 -66 34 -99 10 -25 -18
-29 -34 -7 -34 8 0 57 -18 109 -40 55 -24 109 -40 132 -40 106 0 183 128 123
204 -53 67 -130 73 -275 20 -66 -24 -118 -36 -157 -37 -55 -2 -61 1 -89 31
-33 37 -35 78 -5 96 25 15 39 -9 24 -42 -9 -20 -8 -26 8 -38 44 -32 76 -3 55
50 -12 34 -13 39 0 31 5 -3 14 -25 20 -48 15 -55 37 -73 62 -50 26 24 22 54
-13 92 -16 18 -28 35 -26 37 2 2 25 -19 51 -47 41 -44 51 -50 74 -44 15 3 33
12 41 20 12 12 9 16 -22 28 -19 9 -66 34 -103 56 -77 47 -121 52 -171 21z"/>
<path d="M1573 581 c-24 -11 -62 -33 -85 -49 -24 -16 -53 -33 -66 -36 -29 -9
-24 -27 12 -45 27 -13 30 -11 80 37 28 27 61 55 74 62 13 6 1 -11 -27 -37 -56
-54 -61 -71 -31 -98 29 -27 70 -7 70 34 0 18 10 41 25 58 l26 28 -22 -37 c-26
-48 -19 -78 20 -78 41 0 57 22 37 53 -18 26 -13 37 16 37 28 0 41 -45 23 -79
-33 -64 -134 -71 -265 -18 -141 57 -192 59 -250 11 -59 -50 -58 -137 1 -193
35 -33 121 -29 205 9 36 16 81 32 100 36 41 8 42 16 8 43 -39 31 -59 26 -113
-24 -26 -25 -52 -45 -56 -45 -5 0 8 15 28 34 39 35 46 60 24 90 -19 26 -63 6
-72 -33 -7 -33 -41 -81 -57 -81 -5 0 2 14 16 31 28 33 33 68 14 87 -16 16 -43
15 -58 -3 -10 -13 -10 -19 3 -33 19 -21 8 -46 -19 -40 -13 2 -20 13 -22 34 -5
47 34 74 105 74 41 0 77 -10 148 -40 69 -29 108 -40 145 -40 99 0 160 53 160
138 0 101 -100 157 -197 113z"/>
<path d="M453 533 c-24 -2 -43 -9 -43 -15 0 -13 67 -78 81 -78 5 0 9 15 9 34
0 19 3 41 6 50 3 9 2 15 -2 14 -5 -1 -28 -3 -51 -5z"/>
<path d="M1790 474 l0 -45 28 17 c15 9 37 29 50 45 l24 29 -51 0 -51 0 0 -46z"/>
<path d="M1130 426 c0 -21 21 -31 30 -15 5 7 6 17 4 21 -9 14 -34 9 -34 -6z"/>
<path d="M1128 255 c-6 -14 -23 -32 -37 -42 l-26 -17 35 -7 c19 -5 52 -5 72
-2 l37 5 -31 44 c-17 24 -33 44 -35 44 -2 0 -9 -11 -15 -25z"/>
</g>
</svg>
